<?xml version="1.0" encoding="utf-8"?>
<!-- Generator: Adobe Illustrator 26.3.1, SVG Export Plug-In . SVG Version: 6.00 Build 0)  -->
<svg version="1.1" id="Warstwa_1" xmlns="http://www.w3.org/2000/svg" xmlns:xlink="http://www.w3.org/1999/xlink" x="0px" y="0px"
	 viewBox="0 0 1024 1024" style="enable-background:new 0 0 1024 1024;" xml:space="preserve">
<style type="text/css">
	.st0{fill:#3FE59F;}
</style>
<g>
	<path class="st0" d="M247.86,409.43c15.65,0,29.65-7.05,39-18.15c0,0,3.59-4.58,6.55-11.48c0.19-0.49,0.39-0.98,0.6-1.46
		c0,0,0-0.01,0.01-0.01l0,0c4.97-11.24,16.22-19.08,29.3-19.08c1.55,0,3.07,0.11,4.56,0.32c15.68,2.03,27.79,15.44,27.79,31.67
		c0,0.01,0,0.02,0,0.03h19.03c0-0.01,0-0.02,0-0.03c0-28.15-22.82-50.97-50.97-50.97c-15.65,0-29.65,7.05-39,18.15
		c0,0-4.18,4.9-6.26,9.53c-0.27,0.86-0.57,1.7-0.9,2.53c0,0,0,0,0,0l0,0c-4.76,11.71-16.26,19.97-29.68,19.97
		c-17.69,0-32.02-14.34-32.02-32.02c0,0,0,0,0,0h-18.97c0,0.01,0,0.02,0,0.03C196.89,386.61,219.71,409.43,247.86,409.43z"/>
	<g>
		<g>
			<path class="st0" d="M846.77,400.42c-5.63-33.05-21.66-60.54-47.42-81.91c-32.03-26.57-69.01-36.66-110.2-30.66
				c-24.56,3.58-46.42,13.55-65.73,29.11c-2.68,2.16-5.25,4.47-7.89,6.73c-0.97-0.87-1.82-1.65-2.68-2.42
				c-0.86-0.77-1.71-1.56-2.6-2.3c-32.39-26.63-69.36-37.17-110.86-31.12c-26.14,3.8-49.4,14.46-69.1,31.98
				c-35.73,31.77-51.48,71.75-47.26,119.43c1.43,16.14,6.05,31.43,13.11,46c6.59,13.59,15.59,25.43,25.71,36.59
				c33.1,36.52,65.98,73.24,98.94,109.88c28.63,31.82,57.26,63.63,85.89,95.44c2.92,3.24,5.84,6.47,8.88,9.84
				c0.55-0.58,0.99-1.02,1.41-1.49c9.02-10.02,18.04-20.03,27.06-30.05l-28.28-31.44c-0.05,0.05-0.09,0.1-0.14,0.15
				c-3.25-3.59-6.36-6.99-9.44-10.42c-16.93-18.82-33.86-37.65-50.79-56.47c-24.88-27.66-49.77-55.32-74.66-82.97
				c-11.09-12.32-22.36-24.49-33.25-36.99c-12.28-14.09-19.84-30.53-22.2-49.1c-4.23-33.27,5.89-61.63,30.27-84.63
				c14.25-13.44,31.34-21.55,50.78-24.29c28.86-4.08,54.55,3.33,76.98,21.95c7.12,5.91,12.93,13.01,18.28,20.52
				c4.13,5.81,8.39,11.53,12.6,17.28c0.4,0.55,0.85,1.08,1.46,1.84c1.85-2.52,3.53-4.86,5.26-7.15
				c5.83-7.75,11.25-15.86,17.62-23.14c14.66-16.77,33.17-27.18,55.17-30.91c28.44-4.82,54.25,1.63,76.88,19.52
				c18.87,14.92,30.66,34.43,34.78,58.18c5.21,30.06-2.16,56.95-21.87,80.24c-8.3,9.8-17.17,19.12-25.77,28.68
				c-22.87,25.41-45.73,50.83-68.6,76.24c-15.02,16.69-30.04,33.37-45.06,50.06l28.28,31.44c14.7-16.33,29.41-32.67,44.11-49.01
				c23.55-26.18,47.1-52.36,70.66-78.54c9.76-10.84,19.91-21.36,29.2-32.59C843.65,480.8,853.99,442.8,846.77,400.42z"/>
			<path class="st0" d="M301.27,489.54c-15.65,0-29.65,7.05-39,18.15c0,0-4.18,4.9-6.26,9.53c-0.27,0.86-0.57,1.7-0.9,2.53
				c0,0,0,0,0,0l0,0c-4.76,11.71-16.26,19.97-29.68,19.97c-17.69,0-32.02-14.34-32.02-32.02c0,0,0,0,0,0h-18.97
				c0,0.01,0,0.02,0,0.03c0,28.15,22.82,50.97,50.97,50.97c15.65,0,29.65-7.05,39-18.15c0,0,3.59-4.58,6.55-11.48
				c0.19-0.49,0.39-0.98,0.6-1.46c0,0,0-0.01,0.01-0.01l0,0c4.97-11.24,16.22-19.08,29.3-19.08c1.55,0,3.07,0.11,4.56,0.32
				c15.68,2.03,27.79,15.44,27.79,31.67c0,0.01,0,0.02,0,0.03h19.03c0-0.01,0-0.02,0-0.03
				C352.24,512.36,329.42,489.54,301.27,489.54z"/>
		</g>
	</g>
	<path class="st0" d="M407.02,607.46c-15.65,0-29.65,7.05-39,18.15c0,0-4.18,4.9-6.26,9.53c-0.27,0.86-0.57,1.7-0.9,2.53
		c0,0,0,0,0,0l0,0c-4.76,11.71-16.26,19.97-29.68,19.97c-17.69,0-32.02-14.34-32.02-32.02c0,0,0,0,0,0h-18.97c0,0.01,0,0.02,0,0.03
		c0,28.15,22.82,50.97,50.97,50.97c15.65,0,29.65-7.05,39-18.15c0,0,3.59-4.58,6.55-11.48c0.19-0.49,0.39-0.98,0.6-1.46
		c0,0,0-0.01,0.01-0.01l0,0c4.97-11.24,16.22-19.08,29.3-19.08c1.55,0,3.07,0.11,4.56,0.32c15.68,2.03,27.79,15.44,27.79,31.67
		c0,0.01,0,0.02,0,0.03H458c0-0.01,0-0.02,0-0.03C458,630.28,435.17,607.46,407.02,607.46z"/>
</g>
</svg>
